<svg xmlns="http://www.w3.org/2000/svg" version="1.1" xmlns:xlink="http://www.w3.org/1999/xlink" xmlns:svgjs="http://svgjs.dev/svgjs" width="100%" height="100%" viewBox="0 0 1000 600"><rect width="1000" height="600" x="0" y="0" fill="#00214d"/><g><rect width="333.3333333333333" height="333.3333333333333" rx="13.333333333333334" ry="13.333333333333334" y="169.8659043404963" fill="#008080" transform="matrix(0.8466331141443746,0,0,0.8466331141443744,0,15.080404226719295)" x="147.64367675781247"/><path d="M274.1928107465651 269.26313866593637L274.1928107465651 269.26313866593637Q274.002937326224 270.2938800906451 273.40619229086633 270.97199944900615Q272.7823224811742 271.6501188073671 272.10420312281326 272.30111339139376Q271.4260837644522 272.9792327497547 270.8293387290945 273.63022733378125Q270.2054689194024 274.3083466921423 270.0969698220646 275.36621289118546L270.0969698220646 275.36621289118546Q269.8257220787202 277.56331961227517 267.81848877797165 278.9466831033317Q265.81125547722297 280.33004659438814 263.15302759244787 280.33004659438814L263.15302759244787 280.33004659438814Q260.8474217740204 280.33004659438814 255.50384123013563 280.03167407670924Q250.16026068625084 279.73330155903045 243.29769277963737 279.73330155903045L243.29769277963737 279.73330155903045Q235.6756311916596 279.73330155903045 227.67382276299966 280.27579704571923Q219.64488956000525 280.7911677580736 212.02282797202747 282.03890737745786Q204.4007663840497 283.28664699684214 197.61957280043956 285.2667555232563Q190.86550399116388 287.27398882400485 185.7931711906235 290.2305892264589Q180.74796316441754 293.18718962891285 177.79136276196354 297.14740668174124Q174.8347623595095 301.10762373456953 174.8347623595095 306.2613308581132L174.8347623595095 306.2613308581132Q174.8347623595095 310.92679204363696 176.51649836824484 315.37525503448524Q178.1711096026457 319.7965932509991 180.42246587240427 323.45843778614847Q182.64669736782838 327.1474070956324 185.00655273492472 329.9141340777454Q187.33928332768662 332.68086105985833 188.66839727007417 333.9014759049081L188.66839727007417 333.9014759049081Q189.6177643717796 334.76946868361017 189.6177643717796 335.7188357853156L189.6177643717796 335.7188357853156Q189.6177643717796 337.6175699887265 184.76242976591473 337.6175699887265L184.76242976591473 337.6175699887265Q183.51469014653048 337.6175699887265 181.26333387677192 337.156448825041Q179.03910238134782 336.66820288702104 176.46224881957596 335.5289623649745Q173.8853952578041 334.389721842928 171.17291782436004 332.38248854217943Q168.460440390916 330.37525524143086 166.26333366982632 327.3372805159735Q164.06622694873664 324.2721810161818 162.68286345768016 320.09496576867787Q161.2994999666237 315.89062574683965 161.2994999666237 310.16729836227273L161.2994999666237 310.16729836227273Q161.2994999666237 301.9756165132717 165.4495904397931 294.29930537662494Q169.5996809129625 286.6229942399783 176.70637178858593 280.4656704660603Q183.81306266420933 274.3083466921423 193.33385845559795 270.15825621897295Q202.88177902132102 266.0081657458035 213.6503144320939 264.679051803416L213.6503144320939 264.679051803416Q218.69552245829985 263.8110590247138 223.98485345351574 263.24143876369055Q229.30130922306606 262.6718185026673 234.42789157227534 262.2920716619851Q239.58159869581903 261.91232482130295 244.40980852734944 261.7224514009619Q249.2108935845454 261.53257798062083 253.30673450904592 261.53257798062083L253.30673450904592 261.53257798062083Q260.9559208713581 261.53257798062083 265.3230095392031 262.0479486929752Q269.7172229813824 262.590444179664 271.8600801538032 263.34993786102837Q274.002937326224 264.1094315423927 274.54543281291285 265.0045490954292Q275.06080352526726 265.9267914228002 275.06080352526726 266.68628510416454L275.06080352526726 266.68628510416454Q275.06080352526726 267.2559053651878 274.73530623325394 267.82552562621106Q274.3826841669062 268.39514588723426 274.1928107465651 269.26313866593637ZM232.14941052818233 285.83637578427954L232.14941052818233 285.83637578427954Q232.14941052818233 286.5144951426405 231.95953710784124 291.36982974850537Q231.76966368750018 296.25228912870466 231.44416639548686 303.76585161934474Q231.09154432913917 311.30653888431914 230.68467271412254 320.8544594500422Q230.2506763247715 330.37525524143086 229.81667993542047 340.43854651950824Q229.3826835460694 350.5018377975857 228.94868715671836 360.32100610665316Q228.51469076736728 370.1401744157206 228.18919347535402 378.3589810390562Q227.86369618334075 386.5506628880571 227.67382276299966 392.328239821293Q227.48394934265858 398.0786919801943 227.48394934265858 400.0045509579396L227.48394934265858 400.0045509579396Q227.48394934265858 401.03529238264844 227.23982637364858 402.1474081303604Q226.99570340463865 403.2323991037381 226.34470882061206 404.2360157541124Q225.66658946225104 405.23963240448666 224.47309939153567 405.999126085851Q223.2796093208203 406.75861976721535 221.27237602007168 407.1383666078975L221.27237602007168 407.1383666078975Q219.56351523700192 407.4367391255763 218.18015174594547 408.1419832582718Q216.79678825488898 408.87435216530173 215.7117972815114 409.6338458466661Q214.59968153379933 410.3933395280303 213.73168875509722 410.96295978905357Q212.89082075072955 411.53258005007683 212.13132706936523 411.53258005007683L212.13132706936523 411.53258005007683Q211.6430811313453 411.53258005007683 211.4532077110042 411.0985836607258Q211.26333429066315 410.6645872713748 211.18195996765982 410.0678422360171Q211.07346087032207 409.443972426325 211.07346087032207 408.82010261663277Q211.07346087032207 408.19623280694066 211.07346087032207 407.7079868689208L211.07346087032207 407.7079868689208Q211.18195996765982 401.79478606401267 211.6430811313453 387.8797768304447L211.6430811313453 387.8797768304447Q211.83295455168638 381.9665760255367 212.15845184369968 373.7206446278668Q212.5110739100474 365.4747132301969 213.02644462240178 354.3535557530762Q213.54181533475614 343.2595230502901 214.21993469311715 329.1003908477121Q214.89805405147817 314.9412586451342 215.73892205584582 297.2016562304101L215.73892205584582 297.2016562304101Q215.9287954761869 292.9159418855685 217.2850341929089 290.0407158061178Q218.61414813529652 287.1926145010016 222.03186970143602 286.4331208196372L222.03186970143602 286.4331208196372Q223.76785525884023 286.0262492046206 225.15121874989669 285.13113165158404Q226.53458224095314 284.23601409854757 227.67382276299966 283.28664699684214Q228.81306328504613 282.3101551208023 229.68105606374823 281.55066143943793Q230.5219240681159 280.7911677580736 231.09154432913917 280.7911677580736L231.09154432913917 280.7911677580736Q231.95953710784124 280.7911677580736 232.04091143084457 282.28303034646785Q232.14941052818233 283.7477681605276 232.14941052818233 285.83637578427954ZM354.10239593582685 408.08773370960296L354.10239593582685 408.08773370960296Q355.4586346525489 409.3354733289872 355.4586346525489 410.2034661076892L355.4586346525489 410.2034661076892Q355.4586346525489 411.34270662973574 354.0210216128236 411.34270662973574L354.0210216128236 411.34270662973574Q353.4514013518003 411.34270662973574 352.77328199343935 411.04433411205696L352.77328199343935 411.04433411205696Q352.1222874094127 410.8544606917159 349.5454338476409 409.443972426325Q346.96858028586905 408.00635938659957 343.0626127817096 405.42950582482774Q339.1566452775502 402.8526522630559 334.21993634868204 399.02805908189976Q329.3103521941483 395.23059067507813 324.0752707476013 390.1853826488722L324.0752707476013 390.1853826488722Q318.0806956196899 394.93221815739923 311.00112951840094 397.88881855985323Q303.9486881914464 400.84541896230735 296.43512570080634 400.84541896230735L296.43512570080634 400.84541896230735Q289.6539321171963 400.84541896230735 283.93060473262926 398.18719107753213Q278.20727734806235 395.5018384184225 274.002937326224 391.0262506532398Q269.8257220787202 386.5506628880571 267.4387419372895 380.6374620831491Q265.05176179585874 374.7242612782411 265.05176179585874 368.132941114972L265.05176179585874 368.132941114972Q265.05176179585874 361.7586191463786 266.8691216762662 356.6591615715038Q268.6593567823393 351.55970399662885 271.77870583079994 347.35536397479063Q274.8709301049262 343.1510239529523 279.02102057809554 339.73330238681285Q283.1711110512649 336.28845604633887 287.7551979137854 333.1419822235438L287.7551979137854 333.1419822235438Q285.63946551569904 326.27941431693034 284.7443479626626 319.606719830658Q283.82210563529156 312.93402534438565 283.82210563529156 306.0714574377721L283.82210563529156 306.0714574377721Q283.82210563529156 300.0497575355264 285.01559570600693 294.38067969962833Q286.2090857767223 288.7116018637302 288.9758127588352 284.31738842155085Q291.74253974094813 279.9231749793715 296.2723770547997 277.2649470945963Q300.80221436865133 274.60671920982116 307.5834079522614 274.60671920982116L307.5834079522614 274.60671920982116Q312.73711507580515 274.60671920982116 316.7787064516368 276.1799561212187Q320.8474226018028 277.75319303261625 323.5870248095813 280.6012943377325Q326.3537517916942 283.4765204171832 327.8456143800885 287.4096126956771Q329.3103521941483 291.36982974850537 329.3103521941483 296.0624157083636L329.3103521941483 296.0624157083636Q329.3103521941483 302.54523677429484 327.08612069872413 307.45482092882867Q324.8347644289656 312.3644050833624 321.17291989381613 316.51449555653176Q317.4839505843322 320.6645860297011 312.73711507580515 324.3806801135195Q307.96315479294356 328.0967741973378 302.999321089741 332.11124079883507L302.999321089741 332.11124079883507Q307.0137876912381 342.50002936892577 312.7642398501396 352.9430674876853Q318.54181678337534 363.38610560644497 325.1331369466444 373.2052739155124L325.1331369466444 373.2052739155124Q326.6521243093731 370.0588000927173 327.52011708807515 366.2884564602301Q328.3609850924429 362.5181128277428 328.3609850924429 358.04252506256023L328.3609850924429 358.04252506256023Q328.3609850924429 353.8381850407219 327.5472418624097 350.74596076659566Q326.7606234067109 347.6537364924694 325.8383810793399 345.4837545457142Q324.9432635263033 343.3408973732934 324.12952029627013 342.0117834309058Q323.31577706623693 340.6826694885183 323.31577706623693 340.0045501301572L323.31577706623693 340.0045501301572Q323.31577706623693 338.8653096081107 324.2108946192734 338.5398123160975Q325.1331369466444 338.21431502408416 326.3537517916942 338.21431502408416L326.3537517916942 338.21431502408416Q327.0318711500553 338.21431502408416 328.550858512784 338.43131321875967Q330.0969706498471 338.6754361877696 331.99570485325785 339.3535555461307Q333.8944390566687 340.0045501301572 336.0101714547551 341.3065392982104Q338.09877907850705 342.58140369192904 339.75339031290787 344.6971360900154Q341.4351263216432 346.7857437137674 342.5201172950208 349.93221753656246Q343.6322330427329 353.07869135935755 343.6322330427329 357.36440570419916L343.6322330427329 357.36440570419916Q343.6322330427329 363.0877330887661 340.4315096712688 369.86892667237623Q337.2307862998049 376.62299548165197 331.80583143291676 382.83456880423876L331.80583143291676 382.83456880423876Q337.5291588174837 390.56512948955435 343.2524862020507 396.99370100681676Q348.9758135866176 403.4222725240792 354.10239593582685 408.08773370960296ZM297.3844928025118 391.3246231709187L297.3844928025118 391.3246231709187Q301.86008056769447 391.3246231709187 307.25791066024817 389.3987641931734Q312.62861597846734 387.50002998976254 317.4025762613288 383.2956899679243L317.4025762613288 383.2956899679243Q314.7443483765537 380.3390895654703 312.1132452661129 377.11124141967184Q309.48214215567225 373.85626849953894 307.0137876912381 370.2486735130584L307.0137876912381 370.2486735130584Q301.75158147035665 362.8164853454217 297.8998635148662 356.03529176181155Q294.0481455593756 349.2540981782015 291.2814185772627 342.7712771122701L291.2814185772627 342.7712771122701Q290.7117983162394 343.4493964706312 290.14217805521616 344.01901673165446Q289.5454330198585 344.5886369926777 289.08431185617303 345.2667563510387L289.08431185617303 345.2667563510387Q284.5002249936525 350.6917112179268 282.49299169290396 356.55066247416596Q280.4857583921554 362.4096137304051 280.4857583921554 368.132941114972L280.4857583921554 368.132941114972Q280.4857583921554 372.9069013978336 281.65212368853634 377.1654909683407Q282.79136421058286 381.39695576451345 284.93422138300355 384.54342958730854Q287.07707855542435 387.6899034101036 290.22355237821944 389.5072632905112Q293.37002620101464 391.3246231709187 297.3844928025118 391.3246231709187ZM295.94687976278647 301.1889980575728L295.94687976278647 301.1889980575728Q295.94687976278647 306.45120427845427 297.031870736164 312.22878121169015Q298.1439864838761 317.9792333705915 300.1512197846247 324.1908066931784L300.1512197846247 324.1908066931784Q303.1891945100821 321.4240797110655 305.955921492195 318.0877324679293Q308.7226484743079 314.7513852247931 310.81125609805986 311.170915012647Q312.92698849614624 307.5904448005008 314.14760334119603 303.87435071668244Q315.39534296058025 300.1582566328641 315.39534296058025 296.7134102923902L315.39534296058025 296.7134102923902Q315.39534296058025 293.37706304925393 314.39172631020597 290.80020948748216Q313.3881096598317 288.2233559257103 311.92337184577184 286.4331208196372Q310.4315092573777 284.61576093922974 308.7226484743079 283.69351861185874Q307.0137876912381 282.79840105882215 305.5761746515128 282.79840105882215L305.5761746515128 282.79840105882215Q304.2470607091252 282.79840105882215 302.6195742490588 283.8020177091965Q300.9920877889924 284.80563435957083 299.4731004262637 287.0027410806605Q297.95411306353503 289.1727230274157 296.95049641316075 292.67181891655855Q295.94687976278647 296.14379003136696 295.94687976278647 301.1889980575728ZM466.45321122907956 269.26313866593637L466.45321122907956 269.26313866593637Q466.26333780873847 270.2938800906451 465.63946799904636 270.97199944900615Q465.01559818935414 271.6501188073671 464.3646036053276 272.30111339139376Q463.68648424696664 272.9792327497547 463.0626144372744 273.63022733378125Q462.4387446275824 274.3083466921423 462.35737030457904 275.36621289118546L462.35737030457904 275.36621289118546Q462.05899778690025 277.56331961227517 460.05176448615157 278.9466831033317Q458.0716559597374 280.33004659438814 455.3863033006279 280.33004659438814L455.3863033006279 280.33004659438814Q453.10782225653486 280.33004659438814 447.76424171265 280.03167407670924Q442.42066116876526 279.73330155903045 435.55809326215183 279.73330155903045L435.55809326215183 279.73330155903045Q427.93603167417405 279.73330155903045 419.90709847117967 280.27579704571923Q411.9052900425196 280.7911677580736 404.2832284545418 282.03890737745786Q396.6340420922296 283.28664699684214 389.879973282954 285.2667555232563Q383.0987796993438 287.27398882400485 378.05357167313787 290.2305892264589Q373.0083636469319 293.18718962891285 370.0517632444779 297.14740668174124Q367.0951628420239 301.10762373456953 367.0951628420239 306.2613308581132L367.0951628420239 306.2613308581132Q367.0951628420239 310.92679204363696 368.74977407642484 315.37525503448524Q370.4315100851601 319.7965932509991 372.65574158058416 323.45843778614847Q374.9070978503428 327.1474070956324 377.23982844310467 329.9141340777454Q379.57255903586656 332.68086105985833 380.90167297825417 333.9014759049081L380.90167297825417 333.9014759049081Q381.878164854294 334.76946868361017 381.878164854294 335.7188357853156L381.878164854294 335.7188357853156Q381.878164854294 337.6175699887265 376.99570547409473 337.6175699887265L376.99570547409473 337.6175699887265Q375.7750906290448 337.6175699887265 373.5237343592863 337.156448825041Q371.2723780895278 336.66820288702104 368.6955245277559 335.5289623649745Q366.11867096598405 334.389721842928 363.40619353254 332.38248854217943Q360.6937160990959 330.37525524143086 358.49660937800627 327.3372805159735Q356.2995026569166 324.2721810161818 354.91613916586016 320.09496576867787Q353.5327756748037 315.89062574683965 353.5327756748037 310.16729836227273L353.5327756748037 310.16729836227273Q353.5327756748037 301.9756165132717 357.6828661479731 294.29930537662494Q361.83295662114244 286.6229942399783 368.9396474967658 280.4656704660603Q376.0463383723893 274.3083466921423 385.59425893811226 270.15825621897295Q395.1150547295009 266.0081657458035 405.8835901402739 264.679051803416L405.8835901402739 264.679051803416Q410.9559229408143 263.8110590247138 416.24525393603017 263.24143876369055Q421.53458493124606 262.6718185026673 426.6882920547897 262.2920716619851Q431.8419991783335 261.91232482130295 436.6430842355294 261.7224514009619Q441.47129406705983 261.53257798062083 445.56713499156035 261.53257798062083L445.56713499156035 261.53257798062083Q453.18919657953813 261.53257798062083 457.58341002171755 262.0479486929752Q461.97762346389686 262.590444179664 464.12048063631767 263.34993786102837Q466.26333780873847 264.1094315423927 466.7787085210929 265.0045490954292Q467.3212040077816 265.9267914228002 467.3212040077816 266.68628510416454L467.3212040077816 266.68628510416454Q467.3212040077816 267.2559053651878 466.96858194143385 267.82552562621106Q466.64308464942064 268.39514588723426 466.45321122907956 269.26313866593637ZM424.4098110106968 285.83637578427954L424.4098110106968 285.83637578427954Q424.4098110106968 286.5144951426405 424.1928128160213 291.36982974850537Q424.0029393956802 296.25228912870466 423.67744210366686 303.76585161934474Q423.35194481165354 311.30653888431914 422.9179484223025 320.8544594500422Q422.4839520329515 330.37525524143086 422.04995564360047 340.43854651950824Q421.64308402858387 350.5018377975857 421.20908763923273 360.32100610665316Q420.7750912498817 370.1401744157206 420.4495939578684 378.3589810390562Q420.09697189152075 386.5506628880571 419.90709847117967 392.328239821293Q419.7172250508386 398.0786919801943 419.7172250508386 400.0045509579396L419.7172250508386 400.0045509579396Q419.7172250508386 401.03529238264844 419.47310208182853 402.1474081303604Q419.256103887153 403.2323991037381 418.57798452879206 404.2360157541124Q417.8998651704311 405.23963240448666 416.7063750997156 405.999126085851Q415.54000980333467 406.75861976721535 413.5327765025861 407.1383666078975L413.5327765025861 407.1383666078975Q411.7967909451819 407.4367391255763 410.41342745412544 408.1419832582718Q409.030063963069 408.87435216530173 407.9450729896913 409.6338458466661Q406.86008201631375 410.3933395280303 405.9920892376116 410.96295978905357Q405.12409645890955 411.53258005007683 404.3646027775452 411.53258005007683L404.3646027775452 411.53258005007683Q403.90348161385975 411.53258005007683 403.71360819351867 411.0985836607258Q403.5237347731776 410.6645872713748 403.41523567583977 410.0678422360171Q403.3338613528364 409.443972426325 403.3338613528364 408.82010261663277Q403.3338613528364 408.19623280694066 403.3338613528364 407.7079868689208L403.3338613528364 407.7079868689208Q403.41523567583977 401.79478606401267 403.90348161385975 387.8797768304447L403.90348161385975 387.8797768304447Q404.09335503420084 381.9665760255367 404.41885232621416 373.7206446278668Q404.7443496182274 365.4747132301969 405.2868451049162 354.3535557530762Q405.8022158172705 343.2595230502901 406.4803351756316 329.1003908477121Q407.1313297596581 314.9412586451342 407.9993225383603 297.2016562304101L407.9993225383603 297.2016562304101Q408.18919595870136 292.9159418855685 409.51830990108886 290.0407158061178Q410.84742384347646 287.1926145010016 414.29227018395045 286.4331208196372L414.29227018395045 286.4331208196372Q416.00113096702023 286.0262492046206 417.3844944580767 285.13113165158404Q418.76785794913314 284.23601409854757 419.90709847117967 283.28664699684214Q421.0463389932262 282.3101551208023 421.91433177192823 281.55066143943793Q422.7823245506304 280.7911677580736 423.35194481165354 280.7911677580736L423.35194481165354 280.7911677580736Q424.1928128160213 280.7911677580736 424.301311913359 282.28303034646785Q424.4098110106968 283.7477681605276 424.4098110106968 285.83637578427954Z " fill="#d3d3d3" transform="matrix(0.8466331141443746,0,0,0.8466331141443744,0,15.080404226719295)"/><path d="M614.413934604859 285.8911438650905L614.413934604859 285.8911438650905Q614.413934604859 286.32142274955265 614.3183170749786 288.5445303192737Q614.2466039275682 290.76763788899484 614.0792732502774 294.3532952595127Q613.9119425729865 297.91504824756055 613.6968031307555 302.57640282923387Q613.4816636885245 307.2377574109072 613.194811098883 312.592339084214Q612.9079585092416 317.92301637505057 612.59720153713 323.7317813152897Q612.3103489474885 329.5166418730586 612.0474007403172 335.3254068132976L612.0474007403172 335.3254068132976Q616.8521816168112 335.397119960708 620.9159266367316 335.87520761011035Q625.003576039122 336.32939087704267 628.1828589076479 336.8313829089152L628.1828589076479 336.8313829089152Q630.9557672741818 337.3333749407876 632.6768828120304 337.7636538252498Q634.4219027323492 338.1700283272419 635.4497911785642 338.5524984467637Q636.5015840072496 338.93496856628565 637.0513848040622 339.38915183321797Q637.601185600875 339.86723948262033 638.0314644853371 340.44094466190325L638.0314644853371 340.44094466190325Q638.3661258399188 340.94293669377566 638.987639784142 341.3254068132976Q639.609153728365 341.70787693281954 640.206763290118 342.0903470523415Q640.804372851871 342.44891278939326 641.210747353863 342.8791916738554Q641.6410262383253 343.30947055831757 641.6410262383253 343.88317573760037L641.6410262383253 343.88317573760037Q641.6410262383253 344.5524984467637 641.1868429713929 345.10229924357657Q640.7087553219905 345.6521000403893 640.0394326128272 345.8194307176801L640.0394326128272 345.8194307176801Q639.2744923737833 346.08237892485135 636.5015840072496 346.2497096021423Q633.7286756407156 346.4170402794331 628.0155282303571 346.65608410413427L628.0155282303571 346.65608410413427Q624.9079585092416 346.8234147814251 620.5334565172096 346.9190323113056Q616.1828589076479 346.990745458716 611.4736955610343 347.1580761360068L611.4736955610343 347.1580761360068Q611.210747353863 352.2975183670825 610.9238947642216 356.9110641838156Q610.6370421745802 361.54851438301876 610.4219027323492 365.2775980483574Q610.206763290118 369.006681713696 610.0394326128272 371.6122594029391Q609.8721019355363 374.2178370921821 609.7764844056559 375.413056215688L609.7764844056559 375.413056215688Q609.5374405809547 378.68795661409445 608.3183170749786 383.2536936658872Q607.0991935690025 387.84333510015017 604.4458071148192 392.76763788899484Q601.7924206606359 397.66803629536935 597.5135361984845 402.4728171718633Q593.2346517363331 407.2536936658872 586.6848509395204 410.9588729487558L586.6848509395204 410.9588729487558Q585.4896318160144 411.5325781280386 584.9159266367316 411.5325781280386L584.9159266367316 411.5325781280386Q583.6489943658152 411.5325781280386 583.6489943658152 410.52859406429366L583.6489943658152 410.52859406429366Q583.6489943658152 409.8592713551303 584.58126528215 408.7596697615048L584.58126528215 408.7596697615048Q587.5215043259747 405.6521000403892 589.4577593060543 402.6640522316243Q591.3940142861339 399.6999088053295 592.5892334096399 395.8991119925805Q593.808356915616 392.12221956230155 594.4537752423092 387.1262036260466Q595.0752891865324 382.1301876897917 595.5055680709945 375.0783948611064L595.5055680709945 375.0783948611064Q595.5772812184049 373.0465223511462 595.7446118956957 369.34134306827775L595.7446118956957 369.34134306827775Q595.9119425729865 366.16206019975186 596.1748907801579 360.9030960563256Q596.413934604859 355.6441319128992 596.8442134893212 347.4927374905885L596.8442134893212 347.4927374905885Q591.0354485490822 347.66006816787933 588.3103489474885 348.04253828740116Q585.5852493458949 348.4250084069231 584.987639784142 348.68795661409445L584.987639784142 348.68795661409445Q584.4856477522694 348.85528729138525 584.4378389873292 349.2377574109072Q584.413934604859 349.59632314795897 584.3183170749786 349.9787932674809Q584.2466039275682 350.36126338700285 583.9836557203969 350.64811597664425Q583.7446118956957 350.9588729487558 582.8840541267714 350.9588729487558L582.8840541267714 350.9588729487558Q582.3103489474885 350.9588729487558 581.4258867960941 350.69592474158446Q580.5414246446998 350.4329765344131 579.7525800231857 349.9787932674809Q578.9398310192017 349.5246100005486 578.3661258399188 348.8791916738554Q577.7685162781657 348.2576777296323 577.7685162781657 347.4927374905885L577.7685162781657 347.4927374905885Q577.7685162781657 346.08237892485135 579.5374405809547 344.1461239447717L579.5374405809547 344.1461239447717Q579.9438150829467 343.71584506030956 581.0912254415124 342.7118609965646Q582.214731417608 341.70787693281954 584.3183170749786 340.56046657425384Q586.4219027323492 339.4369605981582 589.6250899833451 338.2895502395925Q592.804372851871 337.1660442634968 597.4418230510743 336.40110402445305L597.4418230510743 336.40110402445305L599.6171218558551 295.90708012007053Q599.7127393857355 294.80747852644504 599.8800700630264 293.34931119576777Q600.0474007403172 291.86723948262033 600.5732971546598 290.48078529935344Q601.1230979514726 289.09433111608644 602.2705083100383 287.9708251399909Q603.3940142861339 286.82341478142513 605.4258867960941 286.4170402794331L605.4258867960941 286.4170402794331Q606.9318628917116 286.0823789248514 608.1031776327475 285.2696299208674Q609.2744923737833 284.48078529935344 610.2545720550582 283.64413191289924Q611.210747353863 282.7835741439749 612.0234963578471 282.1142514348116Q612.812340979361 281.4449287256482 613.4816636885245 281.4449287256482L613.4816636885245 281.4449287256482Q613.8163250431061 281.4449287256482 614.0314644853371 281.87520761011035Q614.2466039275682 282.28158211210246 614.3183170749786 282.9509048212658Q614.413934604859 283.64413191289924 614.413934604859 284.43297653441317Q614.413934604859 285.22182115592716 614.413934604859 285.8911438650905ZM663.8242931705961 268.3453271320227L663.8242931705961 268.3453271320227Q663.6569624933053 269.2536936658873 663.1071616964925 269.8513032276403Q662.5573608996798 270.44891278939326 661.9836557203969 271.0226179686761Q661.3860461586439 271.62022753042913 660.8362453618312 272.19393270971193Q660.2864445650184 272.79154227146495 660.214731417608 273.7238131877996L660.214731417608 273.7238131877996Q659.9517832104368 275.66006816787933 658.1828589076479 276.8791916738554Q656.4378389873292 278.0983151798315 654.0713051227873 278.0983151798315L654.0713051227873 278.0983151798315Q652.0633369952973 278.0983151798315 647.3541736486837 277.83536697266015Q642.6450103020702 277.57241876548886 636.59720153713 277.57241876548886L636.59720153713 277.57241876548886Q629.8800700630264 277.57241876548886 622.780468469401 278.0983151798315Q615.6808668757755 278.60030721170403 608.9398310192017 279.67600442285936Q602.2226995450981 280.77560601648486 596.2944126925084 282.54453031927375Q590.3661258399188 284.3134546220625 585.9199107004766 286.87122354636534Q581.4736955610343 289.42899247066816 578.8681178717912 292.799510398955Q576.2625401825483 296.1461239447717 576.2625401825483 300.44891278939326L576.2625401825483 300.44891278939326Q576.2625401825483 306.4967215543335 578.2705083100383 311.1102673710666Q580.2784764375284 315.74771757026974 582.7645322144208 319.0226179686762Q585.2505879913132 322.2975183670825 587.2585561188033 324.2337733471621Q589.2904286287634 326.1461239447717 589.2904286287634 326.8393510364052L589.2904286287634 326.8393510364052Q589.2904286287634 327.58038689297894 588.1908270351379 328.1779964547319Q587.0912254415124 328.7517016340148 584.987639784142 328.7517016340148L584.987639784142 328.7517016340148Q580.2784764375284 328.7517016340148 576.5015840072496 326.69592474158446Q572.7246915769706 324.64014784915423 569.999591975377 321.2457255383972Q567.2744923737833 317.82739884517014 565.7924206606359 313.4768012356084Q564.3103489474885 309.10229924357657 564.3103489474885 304.39313589696303L564.3103489474885 304.39313589696303Q564.3103489474885 297.17401239098683 567.7286756407156 290.74373350652473Q571.1230979514726 284.3134546220625 577.1470023339427 279.17401239098683Q583.1470023339427 274.0584745423813 591.202779226373 270.3532952595128Q599.2824605012735 266.64811597664425 608.60516966462 264.9030960563255L608.60516966462 264.9030960563255Q619.6250899833451 262.799510398955 628.8521816168112 262.1540920722618Q638.1031776327475 261.5325781280387 645.4179186686041 261.5325781280387L645.4179186686041 261.5325781280387Q652.1350501427077 261.5325781280387 656.0075601028669 261.9867613949709Q659.8800700630264 262.4648490443733 661.7685162781659 263.13417175353663Q663.6569624933053 263.80349446270003 664.1111457602375 264.59233908421396Q664.58923340964 265.405088088198 664.58923340964 266.07441079736134L664.58923340964 266.07441079736134Q664.58923340964 266.57640282923387 664.2784764375284 267.0783948611064Q663.9916238478869 267.58038689297894 663.8242931705961 268.3453271320227ZM693.7525800231857 353.5644506379988L693.7525800231857 353.5644506379988Q691.2187154813531 361.1182354985566 689.0434166765722 366.7835741439749Q686.8442134893212 372.4728171718633 684.6689146845404 376.2975183670825Q682.4697114972894 380.0983151798315 680.007560102867 382.03457015991114Q677.5215043259745 383.9708251399909 674.4856477522694 383.9708251399909L674.4856477522694 383.9708251399909Q672.405966477369 383.9708251399909 671.019512294102 382.6321797216642Q669.6330581108351 381.2935343033374 668.7007871945004 379.59632314795897Q667.7685162781659 377.92301637505057 667.3143330112335 376.36923151449287Q666.8601497443013 374.81544665393506 666.6928190670104 374.3134546220625L666.6928190670104 374.3134546220625Q666.59720153713 374.1461239447717 666.5015840072494 373.8114625901901Q666.4298708598392 373.4768012356084 666.2625401825483 373.4768012356084L666.2625401825483 373.4768012356084Q666.0952095052575 373.4768012356084 665.9756875929069 373.71584506030956Q665.8322612980862 373.9787932674809 665.6649306207953 374.2178370921821L665.6649306207953 374.2178370921821Q665.4258867960941 374.81544665393506 664.3262852024686 376.4170402794331Q663.2266836088431 378.0186339049311 661.6011856008749 379.6919406778395Q659.9517832104368 381.3652474507478 657.8481975530663 382.67998848660443Q655.7446118956957 383.9708251399909 653.3302692662136 383.9708251399909L653.3302692662136 383.9708251399909Q651.3940142861339 383.9708251399909 649.5772812184049 382.7038928690745Q647.7605481506758 381.46086498062834 646.4219027323492 379.30947055831757Q645.0832573140224 377.1580761360068 644.2944126925084 374.2178370921821Q643.4816636885245 371.2775980483574 643.4816636885245 367.9309845025407L643.4816636885245 367.9309845025407Q643.4816636885245 360.61624346668407 645.800388788126 354.1859645822219Q648.1191138877276 347.75568569775976 653.3302692662136 341.2775980483574L653.3302692662136 341.2775980483574Q655.8402294255762 338.1700283272419 658.6609465570504 335.7317813152897Q661.4816636885243 333.2935343033374 664.1589545251778 331.66803629536935Q666.8601497443013 330.0186339049311 669.3223011387236 329.18198051847696Q671.8083569156161 328.3453271320227 673.5772812184049 328.3453271320227L673.5772812184049 328.3453271320227Q674.7485959594408 328.3453271320227 675.9199107004765 328.7517016340148Q677.0912254415124 329.18198051847696 678.0234963578471 330.1859645822219Q678.9557672741818 331.189948645967 679.5055680709945 332.8393510364052Q680.0314644853371 334.48875342684346 680.0314644853371 336.8313829089152L680.0314644853371 336.8313829089152Q680.0314644853371 339.34134306827775 679.2426198638232 342.28158211210246Q678.4537752423092 345.2457255383972 676.8999903817514 347.8034944627Q675.3462055211937 350.36126338700285 673.0752891865324 352.03457015991114Q670.804372851871 353.7317813152897 667.9358469554567 353.7317813152897L667.9358469554567 353.7317813152897Q666.1669226526678 353.7317813152897 666.1669226526678 352.36923151449287L666.1669226526678 352.36923151449287Q666.1669226526678 351.46086498062834 666.6450103020702 349.3572793232578Q667.0991935690024 347.2536936658872 667.0991935690024 345.3174386858076L667.0991935690024 345.3174386858076Q667.0991935690024 344.5524984467637 667.0274804215921 343.50070561807854Q666.9318628917116 342.44891278939326 666.59720153713 341.4449287256482Q666.2625401825483 340.44094466190325 665.6649306207953 339.7716219527399Q665.0912254415125 339.10229924357657 664.0872413777674 339.10229924357657L664.0872413777674 339.10229924357657Q661.8163250431061 339.10229924357657 660.1191138877276 341.205884900947Q658.4458071148192 343.30947055831757 657.3223011387236 346.32142274955265Q656.1748907801579 349.3572793232578 655.5772812184049 352.6321797216642Q655.003576039122 355.90708012007053 655.003576039122 358.2497096021423L655.003576039122 358.2497096021423Q655.003576039122 361.4528968531382 655.5055680709945 363.604291275449Q656.0075601028669 365.7317813152897 656.8442134893212 367.0465223511462Q657.6808668757755 368.3373590045327 658.780468469401 368.88715980134543Q659.8800700630264 369.4369605981582 661.0513848040623 369.4369605981582L661.0513848040623 369.4369605981582Q663.8242931705961 369.4369605981582 665.999591975377 367.54851438301876Q668.198795162628 365.66006816787933 669.8003887881259 363.34134306827775Q671.3780780311539 361.02261796867606 672.4298708598392 359.13417175353663Q673.4816636885243 357.2457255383972 674.1509863976878 357.2457255383972L674.1509863976878 357.2457255383972Q674.9159266367316 357.2457255383972 675.1788748439029 359.01464984118604L675.1788748439029 359.01464984118604Q675.6808668757753 362.791542271465 676.2545720550582 365.2297892834172Q676.8521816168113 367.66803629536935 677.4497911785643 369.05449047863624Q678.0234963578471 370.44094466190325 678.6450103020702 370.990745458716Q679.2904286287635 371.54054625552874 679.9597513379268 371.54054625552874L679.9597513379268 371.54054625552874Q681.2266836088431 371.54054625552874 682.4697114972894 370.0584745423813Q683.7366437682057 368.60030721170403 685.003576039122 366.0664426698713Q686.2705083100384 363.5564825105088 687.6091537283651 360.1859645822219Q688.9477991466918 356.8393510364052 690.4537752423092 353.0385542236562L690.4537752423092 353.0385542236562Q691.3860461586439 350.9588729487558 692.6529784295602 350.9588729487558L692.6529784295602 350.9588729487558Q693.9199107004766 350.9588729487558 693.9199107004766 352.4648490443733L693.9199107004766 352.4648490443733Q693.9199107004766 353.0385542236562 693.7525800231857 353.5644506379988ZM742.3262852024686 353.5644506379988L742.3262852024686 353.5644506379988Q740.6290740470902 358.4170402794331 737.2824605012734 361.1660442634968Q733.9119425729865 363.8911438650905 729.6330581108351 363.8911438650905L729.6330581108351 363.8911438650905Q727.4338549235841 363.8911438650905 725.4258867960941 363.29353430333754L725.4258867960941 363.29353430333754Q723.3223011387236 368.00269764995096 720.5493927721898 371.87520761011035Q717.7764844056559 375.74771757026974 714.788436596891 378.5445303192737Q711.8003887881259 381.3652474507478 708.8601497443012 382.9190323113056Q705.9199107004765 384.4728171718633 703.4099505411141 384.4728171718633L703.4099505411141 384.4728171718633Q702.2386358000782 384.4728171718633 701.4736955610343 383.8513032276403Q700.7087553219906 383.2297892834172 699.8003887881259 381.96285701250076L699.8003887881259 381.96285701250076Q698.7725003419108 380.4568809168833 697.2665242462933 377.6839725503494Q695.7605481506757 374.9110641838156 694.3740939674088 370.7517016340148Q692.987639784142 366.56843470174385 692.007560102867 360.9030960563256Q691.0513848040623 355.2377574109072 691.0513848040623 347.92301637505057L691.0513848040623 347.92301637505057Q691.0513848040623 344.48078529935344 691.4338549235841 342.16206019975186Q691.8163250431061 339.86723948262033 692.3183170749786 338.3373590045327Q692.820309106851 336.8313829089152 693.3940142861339 335.94692075752073Q693.9916238478869 335.06245860612626 694.4936158797594 334.56046657425384L694.4936158797594 334.56046657425384Q694.995607911632 334.0584745423813 695.4258867960941 333.67600442285936Q695.8322612980861 333.2935343033374 696.1669226526678 333.2935343033374L696.1669226526678 333.2935343033374Q696.6928190670104 333.2935343033374 697.0991935690025 333.7716219527399Q697.5294724534647 334.2258052196721 697.9358469554567 334.2258052196721L697.9358469554567 334.2258052196721Q698.2705083100384 334.2258052196721 698.9637354016718 333.79552633520996Q699.6330581108351 333.38915183321797 700.3501895849388 332.88715980134543Q701.0434166765722 332.3851677694729 701.7605481506757 331.95488888501075Q702.4776796247794 331.5246100005486 702.9079585092416 331.5246100005486L702.9079585092416 331.5246100005486Q703.3143330112335 331.5246100005486 703.6968031307555 332.00269764995096Q704.0792732502774 332.4568809168833 704.0792732502774 333.62819565791915L704.0792732502774 333.62819565791915Q704.0792732502774 334.8234147814251 703.9119425729866 335.7795900802299Q703.7446118956957 336.73576537903466 703.5294724534647 338.12221956230167Q703.3143330112335 339.50867374556856 703.1470023339427 341.54054625552874Q702.9796716566519 343.54851438301876 702.9796716566519 346.7517016340148L702.9796716566519 346.7517016340148Q702.9796716566519 356.1700283272419 704.9159266367316 364.32142274955254Q706.8521816168112 372.4728171718633 710.2944126925084 377.6839725503494L710.2944126925084 377.6839725503494Q711.1310660789627 376.48875342684346 712.1828589076479 374.86325541887527Q713.2346517363331 373.21385302843703 714.2864445650184 370.94293669377566Q715.3382373937037 368.6720203591144 716.2226995450981 365.6122594029391Q717.1071616964925 362.5524984467637 717.7764844056559 358.5126578093136L717.7764844056559 358.5126578093136Q716.2705083100384 356.9110641838156 714.788436596891 354.7835741439749Q713.3302692662137 352.6321797216642 712.0633369952973 349.9309845025407L712.0633369952973 349.9309845025407Q710.9637354016718 347.66006816787933 710.4617433697993 345.2696299208674Q709.9597513379267 342.8791916738554 709.9597513379267 340.7038928690745L709.9597513379267 340.7038928690745Q709.9597513379267 338.0983151798315 710.6768828120304 335.7317813152897Q711.3940142861339 333.38915183321797 712.61313779211 331.66803629536935Q713.8322612980862 329.94692075752073 715.5055680709945 328.9190323113056Q717.1788748439029 327.91504824756055 719.1151298239826 327.91504824756055L719.1151298239826 327.91504824756055Q723.7525800231857 327.91504824756055 726.8123409793611 332.07441079736134Q729.8721019355364 336.2337733471621 729.8721019355364 343.71584506030956L729.8721019355364 343.71584506030956Q729.8721019355364 347.92301637505057 729.0832573140224 351.91504824756055Q728.2705083100384 355.90708012007053 726.9318628917117 359.6839725503494L726.9318628917117 359.6839725503494Q728.4378389873292 360.11425143481154 729.8003887881259 360.11425143481154L729.8003887881259 360.11425143481154Q732.8123409793611 360.11425143481154 735.2505879913133 358.3453271320227Q737.6888350032655 356.57640282923387 739.0274804215921 353.0385542236562L739.0274804215921 353.0385542236562Q739.792420660636 350.9588729487558 741.1310660789626 350.9588729487558L741.1310660789626 350.9588729487558Q741.6330581108352 350.9588729487558 742.1111457602376 351.2935343033374Q742.5653290271698 351.62819565791915 742.5653290271698 352.2975183670825L742.5653290271698 352.2975183670825Q742.5653290271698 352.799510398955 742.3262852024686 353.5644506379988ZM714.405966477369 340.77560601648486L714.405966477369 340.77560601648486Q714.405966477369 343.54851438301876 715.4577593060543 346.7038928690745Q716.5095521347396 349.8592713551303 718.4458071148192 352.6321797216642L718.4458071148192 352.6321797216642Q718.61313779211 350.9588729487558 718.7087553219906 349.0465223511462Q718.7804684694008 347.1580761360068 718.7804684694008 345.05449047863624L718.7804684694008 345.05449047863624Q718.7804684694008 340.8712235463654 718.2784764375284 338.0505064148913Q717.7764844056559 335.2297892834172 716.4378389873292 335.3254068132976L716.4378389873292 335.3254068132976Q715.7685162781659 335.3254068132976 715.3382373937037 335.87520761011035Q714.9079585092416 336.40110402445305 714.7167234494806 337.26166179337736Q714.5015840072494 338.0983151798315 714.4537752423092 339.006681713696Q714.405966477369 339.9389526300307 714.405966477369 340.77560601648486ZM761.3063648837435 295.0704267336164L761.3063648837435 295.0704267336164Q761.5693130909149 295.5724187654888 761.5693130909149 296.1461239447717L761.5693130909149 296.1461239447717Q761.5693130909149 297.74771757026974 759.5374405809547 299.5166418730586L759.5374405809547 299.5166418730586Q757.8641338080463 301.0226179686762 756.4298708598392 302.4568809168833Q754.995607911632 303.8911438650905 753.8242931705961 305.01464984118604Q752.6529784295603 306.16206019975175 751.7207075132256 306.8313829089152Q750.812340979361 307.50070561807854 750.214731417608 307.50070561807854L750.214731417608 307.50070561807854Q749.7844525331459 307.50070561807854 749.4258867960941 307.3333749407876Q749.0434166765722 307.1660442634968 748.7087553219906 306.56843470174385L748.7087553219906 306.56843470174385Q747.7047712582455 304.6321797216641 746.6768828120304 302.5524984467638Q745.6728987482853 300.44891278939326 744.8840541267714 298.5843709567239Q744.0713051227874 296.7437335065247 743.5693130909149 295.3572793232578Q743.0673210590423 293.9708251399909 743.0673210590423 293.46883310811836L743.0673210590423 293.46883310811836Q743.0673210590423 292.5365621917837 743.9039744454965 291.46086498062834L743.9039744454965 291.46086498062834Q744.2386358000781 290.93496856628565 745.4577593060543 289.5246100005486Q746.6768828120304 288.0903470523415 748.0633369952973 286.48875342684346Q749.4497911785643 284.88715980134543 750.6689146845404 283.54851438301876Q751.8880381905165 282.2098689646921 752.3183170749786 281.7795900802299L752.3183170749786 281.7795900802299Q753.3223011387236 280.60827533919405 753.991623847887 280.60827533919405L753.991623847887 280.60827533919405Q754.7565640869308 280.60827533919405 755.1629385889228 281.70787693281954L755.1629385889228 281.70787693281954Q755.4258867960941 282.28158211210246 756.3103489474886 284.2178370921821Q757.194811098883 286.15409207226173 758.1987951626279 288.3771996419829Q759.202779226373 290.60030721170403 760.1350501427077 292.5365621917837Q761.0673210590423 294.4728171718633 761.3063648837435 295.0704267336164ZM772.4936158797594 350.9588729487558L772.4936158797594 350.9588729487558Q772.995607911632 350.9588729487558 773.3780780311539 351.3174386858076Q773.7366437682057 351.6999088053295 773.7366437682057 352.36923151449287L773.7366437682057 352.36923151449287Q773.7366437682057 352.9668410762458 773.4975999435045 353.5644506379988L773.4975999435045 353.5644506379988Q771.5613449634247 359.1102673710666 769.9119425729866 363.62819565791915Q768.2864445650184 368.1700283272419 766.6131377921101 371.70787693281954L766.6131377921101 371.70787693281954Q764.1748907801579 376.990745458716 761.9278788279667 379.8114625901901Q759.7047712582455 382.6321797216642 756.9318628917116 383.5644506379988L756.9318628917116 383.5644506379988Q756.2625401825483 383.7317813152897 755.4258867960941 383.8991119925805Q754.58923340964 384.0664426698713 753.6569624933053 384.0664426698713L753.6569624933053 384.0664426698713Q751.5533768359347 384.0664426698713 749.1629385889228 383.2297892834172Q746.7725003419108 382.36923151449287 744.7167234494806 380.0266020324211Q742.6609465570502 377.6839725503494 741.2983967562535 373.42899247066816Q739.9597513379268 369.17401239098683 739.9597513379268 362.3851677694729L739.9597513379268 362.3851677694729Q739.9597513379268 356.3373590045327 740.3900302223889 350.7437335065247Q740.796404724381 345.1501080085168 741.6330581108352 339.4369605981582L741.6330581108352 339.4369605981582Q742.8999903817515 336.8313829089152 744.7167234494806 334.67998848660443Q746.5095521347396 332.5524984467637 748.3740939674088 330.998713586206Q750.214731417608 329.4449287256482 751.7685162781659 328.5843709567239Q753.3223011387236 327.74771757026974 754.0872413777674 327.74771757026974L754.0872413777674 327.74771757026974Q754.421902732349 327.74771757026974 754.421902732349 328.5126578093135L754.421902732349 328.5126578093135Q754.421902732349 329.18198051847696 754.206763290118 330.8313829089152Q753.991623847887 332.4568809168833 753.7525800231857 335.397119960708Q753.4896318160145 338.3373590045327 753.202779226373 342.92700043879563Q752.9159266367316 347.4927374905885 752.7485959594408 354.0664426698713L752.7485959594408 354.0664426698713Q752.7485959594408 357.84333510015017 753.202779226373 361.02261796867606Q753.6569624933053 364.2258052196721 754.5414246446996 366.56843470174385Q755.4258867960941 368.93496856628565 756.6928190670104 370.2258052196721Q757.9358469554567 371.54054625552874 759.4657274335443 371.54054625552874L759.4657274335443 371.54054625552874Q760.8999903817515 371.54054625552874 762.1430182701977 370.15409207226173Q763.4099505411141 368.76763788899484 764.6768828120304 366.28158211210246Q765.9199107004766 363.79552633520996 767.2824605012734 360.40110402445305Q768.6211059196 357.006681713696 770.1270820152176 353.0385542236562L770.1270820152176 353.0385542236562Q770.9637354016718 350.9588729487558 772.4936158797594 350.9588729487558ZM811.9836557203969 350.9588729487558L811.9836557203969 350.9588729487558Q813.1549704614328 350.9588729487558 813.1549704614328 352.36923151449287L813.1549704614328 352.36923151449287Q813.1549704614328 352.9668410762458 812.9159266367316 353.8034944627L812.9159266367316 353.8034944627Q811.6489943658153 357.34134306827775 810.1669226526678 360.44891278939326Q808.7087553219906 363.5564825105088 807.4418230510742 365.8991119925805L807.4418230510742 365.8991119925805Q805.9358469554567 368.6720203591144 804.59720153713 371.0385542236562L804.59720153713 371.0385542236562Q802.8282772343412 373.9787932674809 800.6290740470902 376.4648490443733Q798.4537752423092 378.92700043879563 795.9438150829467 380.7437335065247Q793.4099505411141 382.5365621917837 790.5175202622296 383.58835502046895Q787.6011856008749 384.64014784915423 784.3262852024686 384.64014784915423L784.3262852024686 384.64014784915423Q781.8880381905165 384.64014784915423 779.0434166765722 383.8034944627Q776.174890780158 382.9668410762458 773.7127393857356 380.69592474158446Q771.2266836088431 378.4250084069231 769.5533768359347 374.4329765344131Q767.8561656805563 370.44094466190325 767.8561656805563 364.15409207226173L767.8561656805563 364.15409207226173Q767.8561656805563 359.1102673710666 769.8880381905165 353.0863629885964Q771.8960063180065 347.0863629885964 776.4378389873292 341.2775980483574L776.4378389873292 341.2775980483574Q779.3780780311539 337.50070561807854 782.3661258399188 335.01464984118604Q785.3541736486837 332.5524984467637 788.0792732502774 331.02261796867606Q790.804372851871 329.5166418730586 793.1709067164129 328.9190323113056Q795.5135361984845 328.3453271320227 797.2824605012734 328.3453271320227L797.2824605012734 328.3453271320227Q798.4537752423092 328.3453271320227 799.6250899833451 328.799510398955Q800.796404724381 329.2775980483574 801.7286756407157 330.28158211210246Q802.6609465570504 331.2855661758474 803.2346517363331 332.9110641838156Q803.8322612980862 334.56046657425384 803.8322612980862 336.8313829089152L803.8322612980862 336.8313829089152Q803.8322612980862 339.34134306827775 803.1151298239826 341.99472952246094Q802.397998349879 344.64811597664425 800.8920222542614 347.1580761360068L800.8920222542614 347.1580761360068Q799.7207075132256 349.09433111608644 798.3342533299586 350.36126338700285Q796.9477991466918 351.62819565791915 795.6330581108351 352.36923151449287Q794.3422214574487 353.13417175353663 793.2904286287635 353.42102434317815Q792.2386358000782 353.7317813152897 791.6410262383251 353.7317813152897L791.6410262383251 353.7317813152897Q789.8721019355364 353.7317813152897 789.8721019355364 352.2975183670825L789.8721019355364 352.2975183670825Q789.8721019355364 351.3652474507478 790.397998349879 349.42899247066816Q790.8999903817515 347.4927374905885 790.8999903817515 344.88715980134543L790.8999903817515 344.88715980134543Q790.8999903817515 344.3134546220625 790.8521816168112 343.3333749407876Q790.804372851871 342.3771996419829 790.5175202622296 341.4449287256482Q790.206763290118 340.5365621917837 789.6330581108352 339.8194307176801Q789.0354485490822 339.10229924357657 788.0314644853372 339.10229924357657L788.0314644853372 339.10229924357657Q786.8601497443012 339.10229924357657 785.4736955610343 340.2258052196721Q784.0872413777674 341.3732155782378 782.820309106851 343.71584506030956L782.820309106851 343.71584506030956Q780.8840541267714 347.1580761360068 780.2625401825483 350.9588729487558Q779.6410262383251 354.73576537903466 779.6410262383251 357.74771757026974L779.6410262383251 357.74771757026974Q779.6410262383251 360.3532952595127 780.1669226526678 363.46086498062834Q780.7167234494806 366.56843470174385 781.9358469554567 369.3174386858076Q783.1549704614328 372.04253828740116 785.1868429713929 373.8592713551303Q787.1948110988831 375.6521000403893 790.1350501427077 375.6521000403893L790.1350501427077 375.6521000403893Q793.9119425729865 375.6521000403893 796.8999903817514 373.1660442634968Q799.8880381905165 370.7038928690745 802.2784764375284 367.1182354985566Q804.6689146845404 363.5564825105088 806.5334565172096 359.6839725503494Q808.374093967409 355.8114625901901 809.7127393857355 353.0385542236562L809.7127393857355 353.0385542236562Q810.7167234494806 350.9588729487558 811.9836557203969 350.9588729487558ZM828.0474007403172 376.8234147814251L828.0474007403172 376.8234147814251Q830.0553688678073 376.8234147814251 831.5613449634247 375.4847693630984Q833.0673210590423 374.1461239447717 834.1191138877275 371.94692075752073Q835.1709067164129 369.7716219527399 835.8402294255761 366.8791916738554Q836.5334565172097 363.96285701250076 836.8681178717914 360.85528729138525L836.8681178717914 360.85528729138525Q834.4298708598392 359.18198051847696 832.1111457602376 356.5046896818235Q829.792420660636 353.8034944627 827.9517832104368 349.9309845025407L827.9517832104368 349.9309845025407Q826.8521816168113 347.66006816787933 826.3501895849388 345.2696299208674Q825.8481975530663 342.8791916738554 825.8481975530663 340.7038928690745L825.8481975530663 340.7038928690745Q825.8481975530663 337.9309845025407 826.6131377921101 335.4927374905884Q827.3541736486839 333.05449047863624 828.8362453618312 331.2855661758474Q830.2944126925084 329.5166418730586 832.4936158797594 328.4648490443733Q834.6689146845404 327.413056215688 837.5374405809546 327.413056215688L837.5374405809546 327.413056215688Q841.1470023339427 327.413056215688 843.4657274335443 329.13417175353663Q845.7605481506758 330.85528729138525 847.1230979514726 333.50867374556856Q848.4617433697993 336.16206019975186 849.0115441666121 339.2696299208674Q849.5613449634247 342.3771996419829 849.5613449634247 345.05449047863624L849.5613449634247 345.05449047863624Q849.5613449634247 348.5923390842139 849.0832573140224 352.2975183670825Q848.6290740470902 356.00269764995096 847.6250899833451 359.7795900802299L847.6250899833451 359.7795900802299Q850.7326597044607 359.5166418730586 853.1709067164129 358.0584745423813Q855.6091537283651 356.57640282923387 857.2824605012734 353.0385542236562L857.2824605012734 353.0385542236562Q858.2864445650184 350.9588729487558 859.3860461586439 350.9588729487558L859.3860461586439 350.9588729487558Q859.9597513379268 350.9588729487558 860.4378389873292 351.2935343033374Q860.8920222542615 351.62819565791915 860.8920222542615 352.36923151449287L860.8920222542615 352.36923151449287Q860.8920222542615 352.9668410762458 860.6529784295602 353.5644506379988L860.6529784295602 353.5644506379988Q858.9557672741818 358.3453271320227 855.0593529315523 361.1182354985566Q851.1390342064526 363.8911438650905 846.3581577124288 363.8911438650905L846.3581577124288 363.8911438650905Q844.9238947642216 368.00269764995096 842.8681178717914 371.66006816787933Q840.8123409793611 375.3174386858076 838.0394326128272 378.0903470523415Q835.2665242462933 380.86325541887527 831.7286756407157 382.4648490443733Q828.214731417608 384.0664426698713 823.9119425729866 384.0664426698713L823.9119425729866 384.0664426698713Q821.6410262383251 384.0664426698713 818.796404724381 383.397119960708Q815.9278788279667 382.7038928690745 813.4179186686041 380.57640282923387Q810.8840541267714 378.4250084069231 809.1629385889228 374.52859406429366Q807.4418230510742 370.60827533919405 807.4418230510742 364.15409207226173L807.4418230510742 364.15409207226173Q807.4418230510742 358.84731916389524 809.4258867960941 352.9668410762458Q811.3860461586439 347.0863629885964 816.0234963578471 341.2775980483574L816.0234963578471 341.2775980483574Q817.792420660636 339.10229924357657 819.2505879913133 338.1700283272419Q820.7326597044607 337.26166179337736 821.6410262383251 337.26166179337736L821.6410262383251 337.26166179337736Q823.5055680709945 337.26166179337736 823.5055680709945 339.50867374556856L823.5055680709945 339.50867374556856Q823.5055680709945 340.5365621917837 822.8362453618312 342.04253828740116Q822.1430182701977 343.54851438301876 821.401982413624 345.91504824756055Q820.6370421745802 348.2576777296323 819.9677194654168 351.4847693630984Q819.2983967562535 354.73576537903466 819.2983967562535 359.1102673710666L819.2983967562535 359.1102673710666Q819.2983967562535 367.50070561807854 821.6888350032655 372.16206019975186Q824.0792732502773 376.8234147814251 828.0474007403172 376.8234147814251ZM837.3701099036639 352.1301876897917L837.3701099036639 352.1301876897917Q837.3701099036639 343.54851438301876 835.7685162781659 339.8194307176801Q834.1669226526678 336.0664426698713 832.2306676725882 336.8313829089152L832.2306676725882 336.8313829089152Q831.394014286134 337.1660442634968 831.2744923737833 338.3373590045327Q831.1549704614329 339.50867374556856 831.1549704614329 340.60827533919405L831.1549704614329 340.60827533919405Q831.1549704614329 342.44891278939326 831.6569624933053 344.48078529935344Q832.1589545251778 346.48875342684346 832.9477991466918 348.52062593680364Q833.7605481506757 350.52859406429366 834.8840541267714 352.3453271320227Q836.007560102867 354.1381558172817 837.2744923737833 355.6441319128992L837.2744923737833 355.6441319128992Q837.3701099036639 354.73576537903466 837.3701099036639 353.8991119925805Q837.3701099036639 353.0385542236562 837.3701099036639 352.1301876897917ZM919.8163250431061 350.9588729487558L919.8163250431061 350.9588729487558Q920.3183170749785 350.9588729487558 920.6768828120304 351.3174386858076Q921.0593529315522 351.6999088053295 921.0593529315522 352.36923151449287L921.0593529315522 352.36923151449287Q921.0593529315522 353.0385542236562 920.8203091068511 353.63616378540917L920.8203091068511 353.63616378540917Q918.214731417608 361.1182354985566 916.0155282303572 366.7835741439749Q913.8402294255762 372.4728171718633 911.6171218558551 376.2497096021423Q909.394014286134 380.0266020324211 907.0274804215921 381.96285701250076Q904.6848509395204 383.8991119925805 901.8163250431061 383.8991119925805L901.8163250431061 383.8991119925805Q898.3023808199985 383.8991119925805 896.1031776327475 382.2497096021423Q893.9278788279667 380.6242115941741 892.6609465570502 378.0186339049311Q891.3940142861339 375.413056215688 890.987639784142 372.16206019975186Q890.5573608996798 368.93496856628565 890.5573608996798 365.7317813152897L890.5573608996798 365.7317813152897Q890.5573608996798 363.46086498062834 890.6529784295602 361.2377574109072Q890.7246915769706 359.01464984118604 890.8442134893212 357.006681713696Q890.987639784142 354.97480920373584 891.0593529315523 353.397119960708Q891.1549704614329 351.79552633520996 891.1549704614329 350.791542271465L891.1549704614329 350.791542271465Q891.1549704614329 349.189948645967 890.60516966462 348.4728171718633Q890.0553688678073 347.75568569775976 889.3860461586439 347.75568569775976L889.3860461586439 347.75568569775976Q888.6211059196 347.75568569775976 888.1191138877275 348.4728171718633Q887.6171218558551 349.189948645967 887.2824605012734 350.0983151798315L887.2824605012734 350.0983151798315Q886.8521816168112 351.1262036260466 886.0155282303571 353.7317813152897Q885.1788748439029 356.3373590045327 884.0792732502773 359.6122594029391Q883.003576039122 362.88715980134543 881.7844525331459 366.44891278939326Q880.5653290271698 370.03457015991114 879.5613449634249 372.8791916738554L879.5613449634249 372.8791916738554Q878.198795162628 376.5843709567239 876.9796716566518 378.90309605632547Q875.7605481506758 381.197916773457 874.6848509395204 382.4648490443733Q873.5852493458949 383.7317813152897 872.5334565172097 384.1859645822219Q871.4816636885243 384.64014784915423 870.5493927721898 384.64014784915423L870.5493927721898 384.64014784915423Q869.7127393857356 384.64014784915423 868.8282772343412 384.3054864945725Q867.9438150829467 383.9708251399909 867.2505879913133 383.2297892834172Q866.5334565172097 382.4648490443733 866.0314644853372 381.1501080085168Q865.5055680709945 379.8592713551303 865.5055680709945 377.8513032276403L865.5055680709945 377.8513032276403Q865.3382373937037 373.54851438301876 865.3143330112337 368.5524984467637Q865.2665242462933 363.5564825105088 865.2665242462933 358.77560601648486L865.2665242462933 358.77560601648486Q865.2665242462933 356.5046896818235 865.3143330112337 354.40110402445305Q865.3382373937037 352.2975183670825 865.3382373937037 350.52859406429366L865.3382373937037 350.52859406429366Q865.3382373937037 348.0903470523415 865.0991935690024 347.0385542236562Q864.8362453618312 345.9867613949709 864.4298708598392 345.9867613949709L864.4298708598392 345.9867613949709Q863.4975999435044 345.9867613949709 862.8760859992814 347.8034944627Q862.2306676725882 349.59632314795897 860.7246915769706 353.397119960708L860.7246915769706 353.397119960708Q860.2226995450981 354.64014784915423 859.6728987482854 355.14213988102676Q859.1230979514726 355.6441319128992 858.5493927721898 355.6441319128992L858.5493927721898 355.6441319128992Q858.0474007403172 355.6441319128992 857.6649306207953 355.2855661758474Q857.2824605012734 354.90309605632547 857.2824605012734 353.9708251399909L857.2824605012734 353.9708251399909Q857.2824605012734 353.46883310811836 857.7127393857356 352.1779964547319Q858.1191138877275 350.86325541887527 858.7406278319506 349.30947055831757Q859.3860461586439 347.75568569775976 860.007560102867 346.1062833073215Q860.6529784295602 344.48078529935344 861.1549704614329 343.30947055831757L861.1549704614329 343.30947055831757Q861.8960063180066 341.3732155782378 862.9477991466918 339.3174386858076Q863.999591975377 337.26166179337736 865.3143330112337 335.5166418730586Q866.60516966462 333.79552633520996 868.1589545251778 332.6720203591144Q869.7127393857356 331.5246100005486 871.5772812184049 331.5246100005486L871.5772812184049 331.5246100005486Q874.0155282303572 331.5246100005486 875.9039744454965 334.2258052196721Q877.792420660636 336.90309605632547 877.9597513379267 342.3771996419829L877.9597513379267 342.3771996419829Q878.0314644853372 346.7517016340148 878.0792732502773 350.64811597664425Q878.1270820152176 354.56843470174385 878.198795162628 357.46086498062834Q878.2944126925086 360.3532952595127 878.3422214574487 362.07441079736134Q878.3661258399188 363.79552633520996 878.4617433697993 363.79552633520996L878.4617433697993 363.79552633520996Q878.6290740470902 363.79552633520996 879.2266836088431 362.2895502395925Q879.8003887881259 360.7835741439749 880.7326597044607 358.2975183670825Q881.6410262383253 355.8114625901901 882.8362453618312 352.67998848660443Q884.007560102867 349.5246100005486 885.2983967562535 346.2736139846123Q886.6131377921101 343.0465223511462 888.0474007403172 340.0584745423813Q889.4577593060543 337.0704267336164 890.8920222542614 334.8234147814251L890.8920222542614 334.8234147814251Q892.397998349879 332.3851677694729 894.1430182701977 331.1182354985566Q895.8641338080463 329.8513032276403 898.0394326128271 329.8513032276403L898.0394326128271 329.8513032276403Q901.0752891865325 329.8513032276403 902.4139346048592 333.4369605981582Q903.7525800231858 336.998713586206 903.7525800231858 343.0465223511462L903.7525800231858 343.0465223511462Q903.7525800231858 344.5524984467637 903.6808668757753 346.7517016340148Q903.5852493458949 348.92700043879563 903.4657274335443 351.3652474507478Q903.3462055211937 353.8034944627 903.2505879913133 356.24174147465226Q903.1549704614329 358.67998848660443 903.1549704614329 360.68795661409445L903.1549704614329 360.68795661409445Q903.1549704614329 364.15409207226173 903.4657274335443 366.28158211210246Q903.7525800231858 368.4329765344131 904.2545720550582 369.604291275449Q904.7565640869308 370.77560601648486 905.3541736486839 371.205884900947Q905.9278788279667 371.6122594029391 906.5254883897196 371.6122594029391L906.5254883897196 371.6122594029391Q908.198795162628 371.6122594029391 909.5852493458949 370.1062833073215Q910.9717035291619 368.60030721170403 912.2386358000782 365.99472952246094Q913.5055680709945 363.38915183321797 914.7725003419109 360.0664426698713Q916.0155282303572 356.7437335065247 917.5454087084447 353.0385542236562L917.5454087084447 353.0385542236562Q918.2864445650184 350.9588729487558 919.8163250431061 350.9588729487558ZM940.995607911632 372.80747852644504L940.995607911632 372.80747852644504Q941.1629385889228 373.14213988102676 941.1629385889228 373.71584506030956L941.1629385889228 373.71584506030956Q941.1629385889228 374.3851677694729 940.7804684694008 374.98277733122586Q940.3979983498789 375.58038689297894 939.394014286134 376.2497096021423L939.394014286134 376.2497096021423Q938.7246915769706 376.7517016340148 937.5294724534647 377.63616378540917Q936.3581577124288 378.52062593680364 935.2346517363331 379.405088088198Q934.0872413777674 380.2895502395925 933.202779226373 380.98277733122586Q932.3183170749786 381.6999088053295 932.1509863976878 381.79552633520996L932.1509863976878 381.79552633520996Q931.8163250431061 382.03457015991114 931.3143330112337 382.3453271320227Q930.8123409793611 382.6321797216642 930.2386358000782 382.6321797216642L930.2386358000782 382.6321797216642Q929.4736955610344 382.6321797216642 928.7087553219906 381.79552633520996L928.7087553219906 381.79552633520996Q928.3023808199985 381.2935343033374 927.6330581108351 380.07441079736134Q926.9398310192016 378.85528729138525 926.198795162628 377.54054625552874Q925.4338549235842 376.2497096021423 924.8123409793611 375.0305860961662Q924.1669226526678 373.8114625901901 923.9278788279667 373.30947055831757L923.9278788279667 373.30947055831757Q923.6649306207953 372.80747852644504 923.4497911785643 372.3771996419829Q923.2585561188033 371.94692075752073 923.2585561188033 371.6122594029391L923.2585561188033 371.6122594029391Q923.2585561188033 370.8712235463654 924.0952095052575 370.03457015991114L924.0952095052575 370.03457015991114L932.1509863976878 362.2895502395925Q932.4139346048592 362.0505064148913 932.8681178717914 361.78755820771994Q933.3462055211937 361.54851438301876 933.7525800231858 361.54851438301876L933.7525800231858 361.54851438301876Q934.5175202622295 361.54851438301876 934.9238947642216 362.2895502395925L934.9238947642216 362.2895502395925Q935.1868429713929 362.88715980134543 936.1191138877275 364.44094466190325Q937.0274804215921 365.99472952246094 938.0314644853371 367.66803629536935Q939.0593529315522 369.34134306827775 939.9438150829467 370.8712235463654Q940.804372851871 372.3771996419829 940.995607911632 372.80747852644504ZM973.5055680709945 295.0704267336164L973.5055680709945 295.0704267336164Q973.7685162781659 295.5724187654888 973.7685162781659 296.1461239447717L973.7685162781659 296.1461239447717Q973.7685162781659 297.74771757026974 971.7366437682057 299.5166418730586L971.7366437682057 299.5166418730586Q970.0633369952973 301.0226179686762 968.6290740470902 302.4568809168833Q967.194811098883 303.8911438650905 966.0234963578471 305.01464984118604Q964.8521816168113 306.16206019975175 963.9199107004765 306.8313829089152Q963.0115441666121 307.50070561807854 962.4139346048592 307.50070561807854L962.4139346048592 307.50070561807854Q961.9836557203969 307.50070561807854 961.6250899833451 307.3333749407876Q961.2426198638232 307.1660442634968 960.9079585092416 306.56843470174385L960.9079585092416 306.56843470174385Q959.9039744454965 304.6321797216641 958.8760859992814 302.5524984467638Q957.8721019355364 300.44891278939326 957.0832573140224 298.5843709567239Q956.2705083100384 296.7437335065247 955.7685162781659 295.3572793232578Q955.2665242462933 293.9708251399909 955.2665242462933 293.46883310811836L955.2665242462933 293.46883310811836Q955.2665242462933 292.5365621917837 956.1031776327475 291.46086498062834L956.1031776327475 291.46086498062834Q956.4378389873292 290.93496856628565 957.6569624933053 289.5246100005486Q958.8760859992814 288.0903470523415 960.2625401825483 286.48875342684346Q961.6489943658153 284.88715980134543 962.8681178717914 283.54851438301876Q964.0872413777674 282.2098689646921 964.5175202622295 281.7795900802299L964.5175202622295 281.7795900802299Q965.5215043259745 280.60827533919405 966.190827035138 280.60827533919405L966.190827035138 280.60827533919405Q966.9557672741819 280.60827533919405 967.3621417761738 281.70787693281954L967.3621417761738 281.70787693281954Q967.6250899833451 282.28158211210246 968.5095521347395 284.2178370921821Q969.394014286134 286.15409207226173 970.397998349879 288.3771996419829Q971.401982413624 290.60030721170403 972.3342533299588 292.5365621917837Q973.2665242462933 294.4728171718633 973.5055680709945 295.0704267336164ZM984.6928190670104 350.9588729487558L984.6928190670104 350.9588729487558Q985.194811098883 350.9588729487558 985.5772812184049 351.3174386858076Q985.9358469554568 351.6999088053295 985.9358469554568 352.36923151449287L985.9358469554568 352.36923151449287Q985.9358469554568 352.9668410762458 985.6968031307556 353.5644506379988L985.6968031307556 353.5644506379988Q983.7605481506758 359.1102673710666 982.1111457602376 363.62819565791915Q980.4856477522694 368.1700283272419 978.8123409793611 371.70787693281954L978.8123409793611 371.70787693281954Q976.374093967409 376.990745458716 974.1270820152176 379.8114625901901Q971.9039744454965 382.6321797216642 969.1310660789627 383.5644506379988L969.1310660789627 383.5644506379988Q968.4617433697993 383.7317813152897 967.6250899833451 383.8991119925805Q966.788436596891 384.0664426698713 965.8561656805563 384.0664426698713L965.8561656805563 384.0664426698713Q963.7525800231858 384.0664426698713 961.3621417761739 383.2297892834172Q958.9717035291619 382.36923151449287 956.9159266367315 380.0266020324211Q954.8601497443013 377.6839725503494 953.4975999435046 373.42899247066816Q952.1589545251778 369.17401239098683 952.1589545251778 362.3851677694729L952.1589545251778 362.3851677694729Q952.1589545251778 356.3373590045327 952.58923340964 350.7437335065247Q952.9956079116321 345.1501080085168 953.8322612980862 339.4369605981582L953.8322612980862 339.4369605981582Q955.0991935690024 336.8313829089152 956.9159266367315 334.67998848660443Q958.7087553219906 332.5524984467637 960.5732971546598 330.998713586206Q962.4139346048592 329.4449287256482 963.9677194654168 328.5843709567239Q965.5215043259745 327.74771757026974 966.2864445650184 327.74771757026974L966.2864445650184 327.74771757026974Q966.6211059196 327.74771757026974 966.6211059196 328.5126578093135L966.6211059196 328.5126578093135Q966.6211059196 329.18198051847696 966.405966477369 330.8313829089152Q966.190827035138 332.4568809168833 965.9517832104368 335.397119960708Q965.6888350032655 338.3373590045327 965.4019824136241 342.92700043879563Q965.0912254415125 347.4927374905885 964.9238947642216 354.0664426698713L964.9238947642216 354.0664426698713Q964.9238947642216 357.84333510015017 965.4019824136241 361.02261796867606Q965.8561656805563 364.2258052196721 966.7406278319507 366.56843470174385Q967.6250899833451 368.93496856628565 968.8920222542615 370.2258052196721Q970.1350501427077 371.54054625552874 971.6649306207953 371.54054625552874L971.6649306207953 371.54054625552874Q973.0752891865325 371.54054625552874 974.3422214574488 370.15409207226173Q975.6091537283651 368.76763788899484 976.8760859992813 366.28158211210246Q978.1191138877275 363.79552633520996 979.4816636885243 360.40110402445305Q980.820309106851 357.006681713696 982.3262852024686 353.0385542236562L982.3262852024686 353.0385542236562Q983.1629385889228 350.9588729487558 984.6928190670104 350.9588729487558ZM1000.6609465570502 376.8234147814251L1000.6609465570502 376.8234147814251Q1002.6689146845404 376.8234147814251 1004.1748907801579 375.4847693630984Q1005.7047712582455 374.1461239447717 1006.7326597044607 371.94692075752073Q1007.7844525331459 369.7716219527399 1008.4776796247795 366.8791916738554Q1009.1470023339427 363.96285701250076 1009.4816636885243 360.85528729138525L1009.4816636885243 360.85528729138525Q1007.0434166765722 359.18198051847696 1004.7246915769706 356.5046896818235Q1002.405966477369 353.8034944627 1000.5653290271698 349.9309845025407L1000.5653290271698 349.9309845025407Q999.4657274335443 347.66006816787933 998.9637354016718 345.2696299208674Q998.4617433697993 342.8791916738554 998.4617433697993 340.7038928690745L998.4617433697993 340.7038928690745Q998.4617433697993 337.9309845025407 999.2266836088431 335.4927374905884Q999.9677194654168 333.05449047863624 1001.4497911785643 331.2855661758474Q1002.9318628917117 329.5166418730586 1005.1071616964925 328.4648490443733Q1007.2824605012734 327.413056215688 1010.1509863976878 327.413056215688L1010.1509863976878 327.413056215688Q1013.7605481506758 327.413056215688 1016.0792732502773 329.13417175353663Q1018.374093967409 330.85528729138525 1019.7366437682057 333.50867374556856Q1021.0752891865324 336.16206019975186 1021.6250899833451 339.2696299208674Q1022.1748907801579 342.3771996419829 1022.1748907801579 345.05449047863624L1022.1748907801579 345.05449047863624Q1022.1748907801579 348.5923390842139 1021.6968031307555 352.2975183670825Q1021.2426198638232 356.00269764995096 1020.2386358000782 359.7795900802299L1020.2386358000782 359.7795900802299Q1023.3462055211937 359.5166418730586 1025.7844525331461 358.0584745423813Q1028.2226995450983 356.57640282923387 1029.8960063180066 353.0385542236562L1029.8960063180066 353.0385542236562Q1030.8999903817516 350.9588729487558 1031.999591975377 350.9588729487558L1031.999591975377 350.9588729487558Q1032.5972015371299 350.9588729487558 1033.0513848040623 351.2935343033374Q1033.5055680709947 351.62819565791915 1033.5055680709947 352.36923151449287L1033.5055680709947 352.36923151449287Q1033.5055680709947 352.9668410762458 1033.2665242462936 353.5644506379988L1033.2665242462936 353.5644506379988Q1031.5693130909149 358.3453271320227 1027.6728987482852 361.1182354985566Q1023.7525800231858 363.8911438650905 1018.9717035291619 363.8911438650905L1018.9717035291619 363.8911438650905Q1017.5374405809548 368.00269764995096 1015.4816636885243 371.66006816787933Q1013.4258867960941 375.3174386858076 1010.6529784295603 378.0903470523415Q1007.8800700630264 380.86325541887527 1004.3422214574487 382.4648490443733Q1000.8282772343412 384.0664426698713 996.5254883897197 384.0664426698713L996.5254883897197 384.0664426698713Q994.2545720550582 384.0664426698713 991.4099505411141 383.397119960708Q988.5414246446998 382.7038928690745 986.0314644853372 380.57640282923387Q983.4975999435044 378.4250084069231 981.7764844056559 374.52859406429366Q980.0553688678073 370.60827533919405 980.0553688678073 364.15409207226173L980.0553688678073 364.15409207226173Q980.0553688678073 358.84731916389524 982.0394326128272 352.9668410762458Q984.0234963578471 347.0863629885964 988.6370421745802 341.2775980483574L988.6370421745802 341.2775980483574Q990.405966477369 339.10229924357657 991.8641338080463 338.1700283272419Q993.3462055211937 337.26166179337736 994.2545720550582 337.26166179337736L994.2545720550582 337.26166179337736Q996.1191138877275 337.26166179337736 996.1191138877275 339.50867374556856L996.1191138877275 339.50867374556856Q996.1191138877275 340.5365621917837 995.4497911785643 342.04253828740116Q994.780468469401 343.54851438301876 994.0155282303572 345.91504824756055Q993.2505879913133 348.2576777296323 992.5812652821498 351.4847693630984Q991.9119425729866 354.73576537903466 991.9119425729866 359.1102673710666L991.9119425729866 359.1102673710666Q991.9119425729866 367.50070561807854 994.3023808199985 372.16206019975186Q996.6928190670105 376.8234147814251 1000.6609465570502 376.8234147814251ZM1009.983655720397 352.1301876897917L1009.983655720397 352.1301876897917Q1009.983655720397 343.54851438301876 1008.3820620948989 339.8194307176801Q1006.780468469401 336.0664426698713 1004.8442134893212 336.8313829089152L1004.8442134893212 336.8313829089152Q1004.007560102867 337.1660442634968 1003.8880381905165 338.3373590045327Q1003.7685162781659 339.50867374556856 1003.7685162781659 340.60827533919405L1003.7685162781659 340.60827533919405Q1003.7685162781659 342.44891278939326 1004.2705083100384 344.48078529935344Q1004.7725003419109 346.48875342684346 1005.5613449634247 348.52062593680364Q1006.374093967409 350.52859406429366 1007.4975999435044 352.3453271320227Q1008.6450103020702 354.1381558172817 1009.8880381905165 355.6441319128992L1009.8880381905165 355.6441319128992Q1009.983655720397 354.73576537903466 1009.983655720397 353.8991119925805Q1009.983655720397 353.0385542236562 1009.983655720397 352.1301876897917Z " fill="black" transform="matrix(0.8466331141443746,0,0,0.8466331141443744,0,15.080404226719295)"/></g></svg>